<?xml version="1.0" encoding="utf-8"?>
<!-- Generator: Adobe Illustrator 27.0.0, SVG Export Plug-In . SVG Version: 6.00 Build 0)  -->
<svg version="1.1" id="レイヤー_1" xmlns="http://www.w3.org/2000/svg" xmlns:xlink="http://www.w3.org/1999/xlink" x="0px"
	 y="0px" viewBox="0 0 1000 1000" style="enable-background:new 0 0 1000 1000;" xml:space="preserve">
<style type="text/css">
	.st0{fill-rule:evenodd;clip-rule:evenodd;fill:#FFFFFF;}
</style>
<g id="white_x2F_logo_x5F_symbol">
	<path id="Shape" class="st0" d="M406.1,354.9v-68.8c0-12.5,0.6-16.7,2.6-23.2c5.2-17.7,22.6-30.9,43.2-30.9s38.1,13.5,43.2,30.9
		c1.9,6.4,2.6,10.6,2.6,23.2v106.1c0,6.4,0,12.9-1.3,18.7c-3.5,16.1-18.1,30.6-34.2,34.1c-5.8,1.3-12.3,1.3-18.7,1.3H337.1
		c-12.6,0-16.8-0.6-23.2-2.6c-17.4-5.1-31-22.5-31-43.1c0-20.6,13.5-38,31-43.1c6.5-1.9,10.7-2.6,23.2-2.6H406.1z M785.5,836.1h-571
		V334.7c0-6.4,2.3-11.9,6.8-16.4l148.1-147.6c4.5-4.5,10-6.8,16.5-6.8h399.7V836.1z M850.4,50.6c-2.9-0.3-6.8-0.6-14.2-0.6H370.6
		c-5.2,0-10.3,0.3-13.9,0.6c-21.3,1.9-40.3,11.9-55.5,27L128,250.4c-15.2,15.1-25.2,34.1-27.1,55.3c-0.3,3.5-0.6,8.7-0.6,13.8v567.1
		c0,7.4,0.3,11.3,0.6,14.2c2.6,24.1,24.5,46,48.7,48.6c2.9,0.3,6.8,0.6,14.2,0.6h672.4c7.4,0,11.3-0.3,14.2-0.6
		c24.2-2.6,46.1-24.4,48.7-48.6c0.3-2.9,0.6-6.8,0.6-14.2V113.4c0-7.4-0.3-11.3-0.6-14.2C896.5,75.1,874.6,53.2,850.4,50.6z"/>
</g>
</svg>
