<?xml version="1.0" encoding="utf-8"?>
<!-- Generator: Adobe Illustrator 22.0.1, SVG Export Plug-In . SVG Version: 6.00 Build 0)  -->
<svg version="1.1" id="レイヤー_1" xmlns="http://www.w3.org/2000/svg" xmlns:xlink="http://www.w3.org/1999/xlink" x="0px"
	 y="0px" viewBox="0 0 398 398.8" style="enable-background:new 0 0 398 398.8;" xml:space="preserve">
<path d="M191,245.3c-34.2-28.1-57-62.8-69-82.6l-9-16.9c3.1-3.4,27-28.9,37.4-42.8c13-17.4-5.8-33.2-5.8-33.2s-53-53.1-65.1-63.6
	s-26-4.7-26-4.7C27.9,18,1.6,32.3,0,101c-0.1,64.3,48.7,130.6,101.5,181.9c52.8,58,125.4,116,195.5,116
	c68.6-1.6,82.9-27.9,99.3-53.3c0,0,5.9-13.9-4.7-26c-10.5-12.1-63.6-65.2-63.6-65.2s-15.7-18.9-33.1-5.8
	c-13,9.7-36.3,31.3-41.9,36.5C253,285,214,264.3,191,245.3"/>
</svg>
